<svg xmlns="http://www.w3.org/2000/svg" viewBox="0 0 64 64" width="64" height="64">
  <defs>
    <linearGradient id="bgGrad" x1="0%" y1="0%" x2="100%" y2="100%">
      <stop offset="0%" style="stop-color:#fefce8;stop-opacity:1" />
      <stop offset="50%" style="stop-color:#fbbf24;stop-opacity:1" />
      <stop offset="100%" style="stop-color:#d97706;stop-opacity:1" />
    </linearGradient>
    <linearGradient id="textGrad" x1="0%" y1="0%" x2="100%" y2="100%">
      <stop offset="0%" style="stop-color:#374151;stop-opacity:0.95" />
      <stop offset="100%" style="stop-color:#1f2937;stop-opacity:0.9" />
    </linearGradient>
    <linearGradient id="accentGrad" x1="0%" y1="0%" x2="100%" y2="100%">
      <stop offset="0%" style="stop-color:#d97706;stop-opacity:0.8" />
      <stop offset="100%" style="stop-color:#b45309;stop-opacity:0.6" />
    </linearGradient>
  </defs>
  
  <!-- Background circle -->
  <circle cx="32" cy="32" r="30" fill="url(#bgGrad)" stroke="#d97706" stroke-width="2"/>
  
  <!-- Tech company building blocks effect -->
  <rect x="12" y="24" width="8" height="8" fill="url(#accentGrad)" opacity="0.4" rx="2"/>
  <rect x="44" y="24" width="8" height="8" fill="url(#accentGrad)" opacity="0.4" rx="2"/>
  <rect x="28" y="16" width="8" height="8" fill="url(#accentGrad)" opacity="0.3" rx="2"/>
  <rect x="20" y="40" width="8" height="8" fill="url(#accentGrad)" opacity="0.3" rx="2"/>
  <rect x="36" y="40" width="8" height="8" fill="url(#accentGrad)" opacity="0.3" rx="2"/>
  
  <!-- Central letter design -->
  <g transform="translate(32, 32)">
    <!-- Letter style design combining F and A -->
    <path d="M -8 -12 L -8 12 M -8 -12 L 4 -12 M -8 -2 L 2 -2" stroke="url(#textGrad)" stroke-width="3.5" stroke-linecap="round" stroke-linejoin="round" fill="none"/>
    <path d="M 2 -12 L 8 12 M -2 -12 L 4 12 M -1 2 L 7 2" stroke="url(#textGrad)" stroke-width="3.5" stroke-linecap="round" stroke-linejoin="round" fill="none"/>
  </g>
  
  <!-- Subtle tech dots pattern -->
  <circle cx="16" cy="16" r="1.5" fill="#374151" opacity="0.5"/>
  <circle cx="48" cy="16" r="1.5" fill="#374151" opacity="0.5"/>
  <circle cx="16" cy="48" r="1.5" fill="#374151" opacity="0.5"/>
  <circle cx="48" cy="48" r="1.5" fill="#374151" opacity="0.5"/>
</svg>