<svg xmlns="http://www.w3.org/2000/svg" viewBox="0 0 64 64" width="64" height="64">
  <defs>
    <linearGradient id="bgGrad" x1="0%" y1="0%" x2="100%" y2="100%">
      <stop offset="0%" style="stop-color:#6366f1;stop-opacity:1" />
      <stop offset="50%" style="stop-color:#8b5cf6;stop-opacity:1" />
      <stop offset="100%" style="stop-color:#ec4899;stop-opacity:1" />
    </linearGradient>
    <linearGradient id="textGrad" x1="0%" y1="0%" x2="100%" y2="100%">
      <stop offset="0%" style="stop-color:#ffffff;stop-opacity:0.95" />
      <stop offset="100%" style="stop-color:#f1f5f9;stop-opacity:0.9" />
    </linearGradient>
  </defs>
  
  <!-- Background circle -->
  <circle cx="32" cy="32" r="30" fill="url(#bgGrad)" stroke="#ffffff" stroke-width="2"/>
  
  <!-- Tech company building blocks effect -->
  <rect x="12" y="24" width="8" height="8" fill="#ffffff" opacity="0.2" rx="1"/>
  <rect x="44" y="24" width="8" height="8" fill="#ffffff" opacity="0.2" rx="1"/>
  <rect x="28" y="16" width="8" height="8" fill="#ffffff" opacity="0.15" rx="1"/>
  <rect x="20" y="40" width="8" height="8" fill="#ffffff" opacity="0.15" rx="1"/>
  <rect x="36" y="40" width="8" height="8" fill="#ffffff" opacity="0.15" rx="1"/>
  
  <!-- Central letter design -->
  <g transform="translate(32, 32)">
    <!-- Letter style design combining F and A -->
    <path d="M -8 -12 L -8 12 M -8 -12 L 4 -12 M -8 -2 L 2 -2" stroke="url(#textGrad)" stroke-width="3" stroke-linecap="round" stroke-linejoin="round" fill="none"/>
    <path d="M 2 -12 L 8 12 M -2 -12 L 4 12 M -1 2 L 7 2" stroke="url(#textGrad)" stroke-width="3" stroke-linecap="round" stroke-linejoin="round" fill="none"/>
  </g>
  
  <!-- Subtle tech dots pattern -->
  <circle cx="16" cy="16" r="1.5" fill="#ffffff" opacity="0.3"/>
  <circle cx="48" cy="16" r="1.5" fill="#ffffff" opacity="0.3"/>
  <circle cx="16" cy="48" r="1.5" fill="#ffffff" opacity="0.3"/>
  <circle cx="48" cy="48" r="1.5" fill="#ffffff" opacity="0.3"/>
</svg>